<svg xmlns="http://www.w3.org/2000/svg" version="1.1" xmlns:xlink="http://www.w3.org/1999/xlink" xmlns:svgjs="http://svgjs.dev/svgjs" width="1440" height="560" preserveAspectRatio="none" viewBox="0 0 1440 560"><g mask="url(&quot;#SvgjsMask1092&quot;)" fill="none"><rect width="1440" height="560" x="0" y="0" fill="rgba(234, 196, 255, 1)"></rect><path d="M50.64 140C50.64 116.64 9.48 130.14 0 103.94C-15.84 60.14 -25.41 26.56 0 0C24.3 -25.41 58.14 -16.51 99.42 0C128.14 11.49 118.16 56 140 56C163.9 56 158.76 12.86 190.91 0C228.76 -15.14 235.45 0 280 0C350 0 350 0 420 0C490 0 490 0 560 0C630 0 630 0 700 0C770 0 770 0 840 0C910 0 910 0 980 0C1050 0 1050 0 1120 0C1181.25 0 1198.45 -22.03 1242.5 0C1268.45 12.97 1252.93 70 1260 70C1266.93 70 1245.76 12.37 1270.5 0C1315.76 -22.63 1335.25 0 1400 0C1470 0 1505 -35 1540 0C1575 35 1540 70 1540 140C1540 207.25 1545.77 211.05 1540 274.51C1539.41 281.05 1527.27 274.8 1527.27 280C1527.27 291.54 1538.63 292.92 1540 308C1544.99 362.92 1540 364 1540 420C1540 490 1575 525 1540 560C1505 595 1470 560 1400 560C1330 560 1330 560 1260 560C1190 560 1190 560 1120 560C1050 560 1050 560 980 560C910 560 910 560 840 560C770 560 770 560 700 560C672.42 560 666.66 573.63 644.85 560C596.66 529.88 601.48 472.5 560 472.5C520.16 472.5 527.93 531.43 482.22 560C457.93 575.18 451.11 560 420 560C350 560 350 560 280 560C233.9 560 218.37 583.78 187.8 560C148.37 529.33 180.41 486.51 140 451.11C100.51 416.51 83.51 436.96 28 420C13.51 415.57 2.68 421.71 0 408.33C-11.32 351.71 0 344.16 0 280C0 252.5 -9.05 250.01 0 225C16.27 180.01 50.64 177.17 50.64 140" stroke="rgba(51, 121, 194, 0.58)" stroke-width="2"></path><path d="M700 111.09C681.05 113.51 671.4 124.11 671.4 140C671.4 160.37 677.12 177.76 700 183.61C761.42 199.3 770.14 186.39 840 183.08C910.14 179.75 915.48 187.15 980 170.33C998.12 165.61 1005.28 156.42 1005.28 140C1005.28 117.92 1002.46 96.26 980 93.33C919.82 85.49 910.51 113.99 840 118.46C770.51 122.87 765.35 102.74 700 111.09" stroke="rgba(51, 121, 194, 0.58)" stroke-width="2"></path><path d="M140 253.51C116.68 253.51 85.56 258.79 85.56 280C85.56 316.58 121.12 369.09 140 369.09C156.37 369.09 156.07 323.05 156.07 280C156.07 265.26 151.93 253.51 140 253.51" stroke="rgba(51, 121, 194, 0.58)" stroke-width="2"></path><path d="M1260 163.33C1238.57 163.33 1236.45 220.68 1230.42 280C1223.4 349.02 1222.24 354.15 1233.9 420C1237.03 437.66 1245.66 447.02 1260 447.02C1277.96 447.02 1291.02 440.82 1298.5 420C1321.02 357.31 1329.99 346.62 1320 280C1310.74 218.29 1283.36 163.33 1260 163.33" stroke="rgba(51, 121, 194, 0.58)" stroke-width="2"></path><path d="M280 391.18C230.17 391.18 171.11 401.36 171.11 420C171.11 439.67 234.19 467.8 280 467.8C300.59 467.8 303.9 442.53 303.9 420C303.9 404.22 296.56 391.18 280 391.18" stroke="rgba(51, 121, 194, 0.58)" stroke-width="2"></path><path d="M840 332.5C806.38 332.5 752.5 385.49 752.5 420C752.5 446.17 800.36 453.87 840 453.87C859.11 453.87 870 439.93 870 420C870 379.25 865.13 332.5 840 332.5" stroke="rgba(51, 121, 194, 0.58)" stroke-width="2"></path><path d="M125.11 140C125.11 132.44 133.06 133.5 140 126C197.78 63.5 193.65 54.81 254.55 0C263.65 -8.19 267.27 0 280 0C330 0 331.74 -7.15 380 0C401.74 3.22 401.5 20.74 420 20.74C432.27 20.74 427.43 2.09 441.54 0C497.43 -8.28 500.77 0 560 0C630 0 630 0 700 0C765.88 0 831.76 -17.04 831.76 0C831.76 19.48 760.92 29.97 700 73.04C661.92 99.97 633.76 103.21 633.76 140C633.76 187.18 658.8 199.29 700 240.98C727.98 269.29 772.12 255.23 772.12 280C772.12 310.8 744.62 334.63 700 352.12C638.56 376.2 618.82 339.99 560 363.13C532.57 373.93 548.02 394.7 527.5 420C478.02 481.02 468.43 535.77 420 535.77C377.98 535.77 386.34 475.67 346.59 420C316.34 377.64 315.85 377.4 280 339.71C249.27 307.4 240.53 314.99 213.44 280C170.53 224.59 177.75 218.75 140 158.92C133.58 148.75 125.11 148.9 125.11 140" stroke="rgba(51, 121, 194, 0.58)" stroke-width="2"></path><path d="M48.7 0C48.7 15.05 14.14 50.91 0 50.91C-10.21 50.91 -12.45 13.01 0 0C11.9 -12.45 48.7 -10.4 48.7 0" stroke="rgba(51, 121, 194, 0.58)" stroke-width="2"></path><path d="M980 3.59C962.52 3.59 945 0.9 945 0C945 -0.9 962.5 0 980 0C994 0 1008 -0.89 1008 0C1008 0.9 994.02 3.59 980 3.59" stroke="rgba(51, 121, 194, 0.58)" stroke-width="2"></path><path d="M1053.89 140C1092.46 81.06 1083.48 14.74 1120 14.74C1159.03 14.74 1189.23 71.57 1205 140C1219.8 204.2 1188.79 209.54 1181.13 280C1173.58 349.54 1153.57 359.16 1174.58 420C1193.01 473.37 1213.06 508.42 1260 508.42C1318.77 508.42 1336.51 473.26 1386 420C1406.51 397.94 1390.14 357.78 1400 357.78C1410.47 357.78 1401.86 400.37 1426.67 420C1471.86 455.76 1507.46 428.38 1540 468.57C1564.13 498.38 1567.65 541.94 1540 560C1497.65 587.65 1470 560 1400 560C1330 560 1330 560 1260 560C1190 560 1190 560 1120 560C1107.03 560 1105.82 564.97 1094.07 560C1035.82 535.36 1028.82 540.03 980 500.77C941.78 470.03 936.84 465.86 920 420C896.31 355.47 881.07 337.02 898.95 280C911.07 241.36 944.84 260.44 980 228.67C1022.31 190.44 1022.46 188.03 1053.89 140" stroke="rgba(51, 121, 194, 0.58)" stroke-width="2"></path><path d="M1321.6 140C1311.01 74.78 1327.62 54.25 1358 0C1366.82 -15.75 1379 0 1400 0C1424.7 0 1428.07 -10.21 1449.41 0C1498.07 23.27 1512.52 24.49 1540 66.96C1557.82 94.49 1540 103.48 1540 140C1540 172.94 1561.4 187.73 1540 205.88C1491.4 247.12 1455.97 275.67 1400 258.79C1346.77 242.73 1332.01 204.17 1321.6 140" stroke="rgba(51, 121, 194, 0.58)" stroke-width="2"></path><path d="M273.17 560C273.17 558 275.67 553.17 280 553.17C291.81 553.17 305.45 558.26 305.45 560C305.45 561.68 292.73 560 280 560C276.59 560 273.17 561.41 273.17 560" stroke="rgba(51, 121, 194, 0.58)" stroke-width="2"></path><path d="M749.41 560C749.41 546.76 796.14 510.32 840 510.32C876.44 510.32 910 546.32 910 560C910 571.16 875 560 840 560C794.7 560 749.41 571.6 749.41 560" stroke="rgba(51, 121, 194, 0.58)" stroke-width="2"></path><path d="M430.77 140C430.77 79.47 511.99 15.56 560 15.56C594.67 15.56 596.13 78.05 596.13 140C596.13 196.27 593.7 252 560 252C511.02 252 430.77 197.69 430.77 140" stroke="rgba(51, 121, 194, 0.58)" stroke-width="2"></path><path d="M700 35C640.1 35 576.15 8.92 576.15 0C576.15 -8.58 638.08 0 700 0C731.57 0 763.14 -8.16 763.14 0C763.14 9.34 733.6 35 700 35" stroke="rgba(51, 121, 194, 0.58)" stroke-width="2"></path><path d="M1102.5 140C1111.39 123.5 1110.33 106.84 1120 106.84C1130.33 106.84 1141.19 120.78 1142.5 140C1147.1 207.36 1138.25 210.1 1131.83 280C1127 332.6 1137.24 338.43 1120 385C1111.33 408.43 1104.15 411.64 1080 420C1034.15 435.87 1027.16 433.46 980 433.46C972.16 433.46 970 428.07 970 420C970 377.59 964.24 371.44 980 332.5C992.57 301.44 1007.92 309.46 1026.67 280C1069.17 213.21 1064.73 210.08 1102.5 140" stroke="rgba(51, 121, 194, 0.58)" stroke-width="2"></path><path d="M1391.6 140C1391.6 127.45 1388.49 113.75 1400 113.75C1445.19 113.75 1505 130.14 1505 140C1505 149.63 1449.55 152.73 1400 152.73C1392.85 152.73 1391.6 146.94 1391.6 140" stroke="rgba(51, 121, 194, 0.58)" stroke-width="2"></path><path d="M270.82 280C270.82 270.25 272.73 258.46 280 258.46C290.65 258.46 306.67 271.79 306.67 280C306.67 286.68 292.43 288.24 280 288.24C274.51 288.24 270.82 285.14 270.82 280" stroke="rgba(51, 121, 194, 0.58)" stroke-width="2"></path><path d="M389.27 420C389.27 385.25 401.84 348 420 348C439.7 348 465 386.14 465 420C465 446.37 440.27 468.46 420 468.46C402.41 468.46 389.27 445.48 389.27 420" stroke="rgba(51, 121, 194, 0.58)" stroke-width="2"></path><path d="M1450.91 560C1450.91 554.94 1503.46 540 1540 540C1548 540 1548.17 558.17 1540 560C1503.62 568.17 1450.91 564.94 1450.91 560" stroke="rgba(51, 121, 194, 0.58)" stroke-width="2"></path></g><defs><mask id="SvgjsMask1092"><rect width="1440" height="560" fill="#ffffff"></rect></mask></defs></svg>